<?xml version="1.0" standalone="no"?>
<!DOCTYPE svg PUBLIC "-//W3C//DTD SVG 20010904//EN"
 "http://www.w3.org/TR/2001/REC-SVG-20010904/DTD/svg10.dtd">
<svg version="1.0" xmlns="http://www.w3.org/2000/svg"
 width="960.000000pt" height="242.000000pt" viewBox="0 0 960.000000 242.000000"
 preserveAspectRatio="xMidYMid meet">

<g transform="translate(0.000000,242.000000) scale(0.100000,-0.100000)"
fill="#000000" stroke="none">
<path d="M4138 1216 c-3 -396 -3 -402 -26 -444 -45 -83 -160 -130 -298 -119
-84 6 -137 27 -183 70 -61 58 -61 60 -61 461 0 364 0 365 -23 391 -15 18 -36
28 -65 32 l-42 6 0 -406 c0 -384 1 -409 20 -461 47 -124 199 -205 386 -206
190 0 331 70 390 195 24 50 24 50 24 441 0 440 5 414 -77 432 l-42 10 -3 -402z"/>
<path d="M5605 1610 c-79 -13 -176 -61 -217 -110 -66 -76 -69 -101 -66 -441 3
-290 4 -306 25 -344 69 -127 208 -184 427 -172 197 10 309 80 351 220 20 69
22 547 2 625 -27 101 -101 172 -217 207 -67 19 -224 27 -305 15z m301 -127
c56 -30 92 -75 99 -126 4 -23 5 -163 3 -312 -3 -262 -4 -271 -26 -307 -16 -25
-42 -46 -80 -65 -53 -26 -66 -28 -172 -27 -137 1 -197 19 -241 74 -43 54 -51
120 -47 399 3 230 5 249 25 287 43 80 110 105 278 101 100 -2 127 -6 161 -24z"/>
<path d="M713 1600 c-217 -39 -337 -186 -336 -410 1 -109 25 -177 102 -291 70
-102 91 -165 91 -270 0 -74 1 -77 25 -81 14 -3 36 -3 50 0 25 4 25 6 25 101 0
155 -31 216 -152 298 -26 17 -54 46 -64 64 -16 32 -16 33 6 51 12 10 30 18 39
18 9 0 22 4 30 9 12 8 12 12 3 24 -10 12 -21 13 -52 5 -58 -15 -70 -1 -70 82
0 51 5 73 18 90 18 22 19 22 51 6 60 -32 84 -1 26 33 -25 14 -35 28 -35 44 0
29 82 121 102 115 7 -2 24 -21 37 -41 40 -60 79 -43 41 18 -13 21 -19 42 -15
54 8 25 81 54 126 49 34 -3 34 -4 37 -55 3 -45 6 -53 23 -53 16 0 19 7 19 39
0 59 8 71 44 71 50 0 124 -29 131 -51 4 -12 -2 -31 -15 -49 -21 -30 -21 -60 0
-60 6 0 20 16 31 35 23 39 50 45 87 19 80 -56 64 -190 -28 -236 -40 -21 -130
-24 -148 -6 -7 7 -12 36 -12 66 0 46 -3 53 -17 50 -14 -2 -19 -15 -21 -53 -4
-63 -15 -75 -66 -75 -35 0 -48 6 -76 35 -19 19 -40 35 -46 35 -28 0 -24 -24
10 -59 32 -33 36 -43 36 -88 0 -60 -6 -66 -75 -73 -35 -3 -50 -9 -50 -20 0
-11 15 -16 52 -20 28 -3 55 -9 60 -14 9 -9 11 -58 12 -293 l1 -163 78 0 78 0
17 35 c28 59 67 75 178 75 115 0 129 10 137 92 2 29 11 60 18 69 11 12 13 32
9 74 -3 32 -8 62 -10 66 -3 4 11 17 30 29 19 12 35 28 35 35 0 8 -27 58 -61
111 -53 85 -59 101 -50 121 40 88 -35 245 -141 296 -89 42 -256 64 -355 47z"/>
<path d="M1562 1095 l3 -508 25 -18 c14 -9 40 -20 57 -24 l33 -7 2 442 3 441
245 -396 c135 -218 258 -410 275 -426 27 -28 106 -59 147 -59 17 0 18 24 18
510 l0 510 -22 14 c-13 8 -40 18 -61 21 l-38 7 3 -441 3 -441 -22 38 c-12 20
-128 208 -256 417 -177 288 -242 384 -266 398 -17 11 -58 21 -91 24 l-60 6 2
-508z"/>
<path d="M2610 1109 c0 -301 4 -497 10 -509 18 -35 65 -40 341 -40 267 0 269
0 283 23 8 12 18 34 21 49 l7 28 -266 0 -266 0 0 205 0 205 189 0 c104 0 201
4 215 10 30 11 66 65 66 97 0 20 -3 21 -26 13 -14 -6 -120 -10 -235 -10 l-209
0 0 160 0 160 245 0 c243 0 245 0 259 23 8 12 18 34 21 50 l7 27 -331 0 -331
0 0 -491z"/>
<path d="M4490 1091 l0 -510 28 -15 c15 -7 42 -17 60 -21 l32 -7 0 251 c0 138
1 251 3 251 1 0 26 -7 55 -14 118 -32 187 -96 273 -256 82 -154 105 -188 138
-205 30 -15 106 -23 117 -12 11 10 -146 303 -194 363 -26 32 -68 73 -93 90
l-46 31 68 16 c91 21 152 64 185 130 23 45 27 64 27 142 0 108 -16 149 -76
201 -68 57 -114 67 -359 72 l-218 4 0 -511z m443 381 c74 -33 104 -116 76
-217 -25 -92 -76 -114 -261 -115 l-138 0 0 173 c0 96 3 177 8 181 4 5 66 6
138 4 103 -4 140 -10 177 -26z"/>
<path d="M6360 1102 c0 -554 -3 -532 68 -552 20 -5 43 -10 50 -10 10 0 12 84
10 439 -2 242 -2 438 -1 437 1 -1 63 -132 138 -291 142 -305 175 -355 230
-355 23 0 32 12 79 113 30 61 101 208 160 326 l106 214 0 -422 0 -422 43 -19
c84 -39 77 -83 77 483 0 276 -4 507 -8 514 -12 19 -78 43 -117 43 l-35 0 -88
-182 c-48 -101 -119 -249 -157 -330 -39 -81 -72 -148 -75 -148 -3 0 -38 73
-79 163 -41 89 -108 230 -148 314 -83 174 -93 183 -193 183 l-60 0 0 -498z"/>
<path d="M7560 1111 c0 -269 3 -497 6 -506 16 -40 51 -45 329 -45 155 0 274 4
285 10 16 8 40 58 40 81 0 5 -119 9 -265 9 l-264 0 -3 205 -3 205 192 0 c105
0 203 4 217 10 30 11 53 44 62 88 6 32 6 32 -20 22 -16 -6 -119 -10 -239 -10
l-212 0 2 157 2 158 245 3 c242 2 246 3 260 25 7 12 16 34 20 50 l6 27 -330 0
-330 0 0 -489z"/>
<path d="M8400 1106 c0 -478 1 -497 19 -515 30 -30 68 -33 312 -29 203 4 229
6 280 26 108 43 173 108 198 198 7 23 11 142 11 296 0 229 -2 263 -19 308 -34
88 -94 144 -199 182 -51 19 -84 22 -329 26 l-273 4 0 -496z m552 365 c70 -27
112 -73 134 -146 13 -46 15 -96 12 -273 -3 -210 -4 -218 -28 -261 -59 -105
-135 -131 -377 -131 l-163 0 0 420 0 421 183 -4 c158 -3 190 -7 239 -26z"/>
</g>
</svg>
